# xmcd
#
# Track frame offsets:
#	150
#	14925
#	28120
#	43125
#	55830
#	69672
#	83742
#	98842
#	112334
#	128139
#
# Disc length: 1909 seconds
#
# Revision: 2
# Processed by: cddbd v1.5.2PL0 Copyright (c) Steve Scherf et al.
# Submitted via: audiograbber 1.83.01
#
DISCID=9007730a
DTITLE=Various Artist - Classic Country Volume 1
DYEAR=1994
DGENRE=Country
TTITLE0=Waylon Jennings - Luckenbach Texas
TTITLE1=Dolly Parton - Here You Come Again
TTITLE2=Sylvia - Nobody
TTITLE3=Gary Stewart - She's Actin' Single
TTITLE4=Jim Ed Brown and Helen Cornelius - I Don't Want To Have To Marry You
TTITLE5=Sue Powell - Without You
TTITLE6=Dottsy - Play Born To Lose Again
TTITLE7=Dickey Lee - 9,999,999 Tears
TTITLE8=Ed Bruce - You Turn Me On
TTITLE9=Louise Mandrell - I Wanna Say Yes
EXTD=
EXTT0=
EXTT1=
EXTT2=
EXTT3=
EXTT4=
EXTT5=
EXTT6=
EXTT7=
EXTT8=
EXTT9=
PLAYORDER=
